<svg width="248" height="287" viewBox="0 0 256 296" xmlns="http://www.w3.org/2000/svg" role="img" aria-label="BeaconMap emblem">
  <defs>
    <radialGradient id="disc" cx="42%" cy="36%" r="78%">
      <stop offset="0" stop-color="#1C3C56"/>
      <stop offset="55%" stop-color="#102A3E"/>
      <stop offset="100%" stop-color="#091826"/>
    </radialGradient>
    <linearGradient id="core" x1="0" y1="0" x2="0" y2="1">
      <stop offset="0" stop-color="#FFCB5E"/>
      <stop offset="55%" stop-color="#F6A623"/>
      <stop offset="100%" stop-color="#D9850E"/>
    </linearGradient>
    <radialGradient id="glow" cx="50%" cy="50%" r="50%">
      <stop offset="0" stop-color="#F6A623" stop-opacity=".55"/>
      <stop offset="55%" stop-color="#F6A623" stop-opacity=".12"/>
      <stop offset="100%" stop-color="#F6A623" stop-opacity="0"/>
    </radialGradient>
    <filter id="sh" x="-25%" y="-20%" width="150%" height="155%">
      <feDropShadow dx="0" dy="7" stdDeviation="9" flood-color="#040E16" flood-opacity="0.5"/>
    </filter>
  </defs>

  <g filter="url(#sh)">
    <path d="M128 276 L98 214 L158 214 Z" fill="#0A1A28"/>
    <circle cx="128" cy="128" r="104" fill="url(#disc)"/>
    <circle cx="128" cy="128" r="103" fill="none" stroke="#ffffff" stroke-opacity=".05" stroke-width="1"/>
  </g>

  <circle cx="128" cy="128" r="98" fill="none" stroke="#081521" stroke-width="3"/>
  <circle cx="128" cy="128" r="96" fill="none" stroke="#5E7689" stroke-opacity=".5" stroke-width="1"/>

  <g transform="rotate(-90 128 128)">
    <circle cx="128" cy="128" r="92" pathLength="360" fill="none"
      stroke="#8DA4B8" stroke-opacity=".5" stroke-width="10" stroke-dasharray="0.8 4.2"/>
    <circle cx="128" cy="128" r="92" pathLength="360" fill="none"
      stroke="#B9CCDB" stroke-opacity=".85" stroke-width="15" stroke-dasharray="1.6 28.4"/>
  </g>

  <circle cx="128" cy="128" r="70" fill="none" stroke="#6E8597" stroke-opacity=".3" stroke-width="1.4" stroke-dasharray="2 6"/>
  <circle cx="128" cy="128" r="44" fill="none" stroke="#6E8597" stroke-opacity=".22" stroke-width="1.4"/>

  <g stroke="#90A6BA" stroke-opacity=".5" stroke-width="1.6" stroke-linecap="round">
    <line x1="128" y1="58" x2="128" y2="104"/>
    <line x1="128" y1="152" x2="128" y2="198"/>
    <line x1="58" y1="128" x2="104" y2="128"/>
    <line x1="152" y1="128" x2="198" y2="128"/>
  </g>

  <path d="M128 54 L121 41 L135 41 Z" fill="url(#core)"/>

  <circle cx="128" cy="128" r="32" fill="url(#glow)"/>
  <g stroke="url(#core)" stroke-width="2.6" stroke-linecap="round">
    <line x1="146" y1="110" x2="156" y2="100"/>
    <line x1="110" y1="110" x2="100" y2="100"/>
    <line x1="146" y1="146" x2="156" y2="156"/>
    <line x1="110" y1="146" x2="100" y2="156"/>
  </g>
  <circle cx="128" cy="128" r="18" fill="none" stroke="url(#core)" stroke-width="6"/>
  <circle cx="128" cy="128" r="13" fill="none" stroke="#091826" stroke-width="2"/>
  <circle cx="128" cy="128" r="7.5" fill="url(#core)"/>
  <circle cx="124.5" cy="124.5" r="2.2" fill="#FFE9BE" fill-opacity=".7"/>
</svg>
